# xmcd
#
# Track frame offsets:
#	150
#	19182
#	32737
#	44117
#	58757
#	71342
#	79205
#	94265
#	107182
#	127520
#	142435
#	157660
#	174500
#	188137
#	204130
#
# Disc length: 2924 seconds
#
# Revision: 1
# Processed by: cddbd v1.5.2PL0 Copyright (c) Steve Scherf et al.
# Submitted via: EasyCDDAExtractor 7.0.5.1
#
DISCID=cb0b6a0f
DTITLE=Various Artist - Peace on Earth - Disc 2 - Country Christmas
DYEAR=2003
DGENRE=Country
TTITLE0=Nashville Christmas Players - Deck the Halls
TTITLE1=Gene Miller - Joy to the World
TTITLE2=Woody Wright - Jingle Bells
TTITLE3=Nashville Superpickers - O Come, All Ye Faithful
TTITLE4=Nashville Christmas Players - It Came Upon a Midnight Clear
TTITLE5=Nashville Christmas Players - Angels We Have Heard on High
TTITLE6=Judy Rodman - O Little Town of Bethlehem
TTITLE7=Nashville Christmas Players - Hark! the Herald Angels Sing
TTITLE8=Darren Robbins - Silent Night
TTITLE9=David West - O Christmas Tree
TTITLE10=Gene Miller - The First Noel
TTITLE11=Nashville Christmas Players - O Holy Night
TTITLE12=Nashville Christmas Players - Jolly Old St. Nicholas
TTITLE13=Regina Leigh - Away in a Manger
TTITLE14=Nashville Superpickers - We Wish You a Merry Christmas
EXTD=Disc 1 of 4
EXTT0=Nashville Christmas Players
EXTT1=Gene Miller
EXTT2=Woody Wright
EXTT3=Nashville Superpickers
EXTT4=Nashville Christmas Players
EXTT5=Nashville Christmas Players
EXTT6=Judy Rodman
EXTT7=Nashville Christmas Players
EXTT8=Darren Robbins
EXTT9=David West
EXTT10=Gene Miller
EXTT11=Nashville Christmas Players
EXTT12=Nashville Christmas Players
EXTT13=Regina Leigh
EXTT14=Nashville Superpickers
PLAYORDER=
